<svg width="32" height="32" viewBox="0 0 32 32" fill="none" xmlns="http://www.w3.org/2000/svg">
<path d="M28 16.0003C28 9.37285 22.6274 4.00027 16 4.00027C9.37258 4.00027 4 9.37285 4 16.0003C4 21.9898 8.38823 26.9543 14.125 27.8545V19.469H11.0781V16.0003H14.125V13.3565C14.125 10.349 15.9165 8.68777 18.6576 8.68777C19.9705 8.68777 21.3438 8.92215 21.3438 8.92215V11.8753H19.8306C18.3399 11.8753 17.875 12.8003 17.875 13.7493V16.0003H21.2031L20.6711 19.469H17.875V27.8545C23.6118 26.9543 28 21.9898 28 16.0003Z" fill="#44546F"/>
<path d="M20.6711 19.4688L21.2031 16H17.875V13.749C17.875 12.8 18.3399 11.875 19.8306 11.875H21.3438V8.92188C21.3438 8.92188 19.9705 8.6875 18.6576 8.6875C15.9165 8.6875 14.125 10.3487 14.125 13.3562V16H11.0781V19.4688H14.125V27.8542C14.7359 27.9501 15.3621 28 16 28C16.6379 28 17.2641 27.9501 17.875 27.8542V19.4688H20.6711Z" fill="white"/>
</svg>
