<svg width="24" height="24" viewBox="0 0 24 24" fill="none" xmlns="http://www.w3.org/2000/svg">
<path fill-rule="evenodd" clip-rule="evenodd" d="M17.3472 2L17.7944 2.89442L18.2944 3.89442L16.5056 4.78885L16.0056 3.78885L15.5584 2.89442L17.3472 2ZM20.6071 6.54874L21.3142 5.84164L19.9 4.42742L19.1929 5.13453L18.0932 6.23417L16.6425 5.87149L15.6724 5.62896L15.1873 7.56924L16.1575 7.81178L18.1575 8.31178L18.7067 8.4491L19.1071 8.04874L20.6071 6.54874ZM22 10.1417L22.8 9.54164L21.6 7.94164L20.8 8.54164L19.2496 9.70444L17.2714 8.91316L16.3429 8.54177L15.6001 10.3988L16.5286 10.7701L19.0286 11.7701L19.5504 11.9789L20 11.6417L22 10.1417ZM16.9528 12L17.8472 12.4472L19.4 13.2236L20.9528 12.4472L21.8472 12L22.7416 13.7889L21.8472 14.2361L19.8472 15.2361L19.4 15.4597L18.9528 15.2361L16.9528 14.2361L16.0584 13.7889L16.9528 12ZM19.5414 16.3517C17.6408 16.0802 15.0909 16.2473 12.6733 16.7773C12.4156 16.8338 12.1575 16.8949 11.9 16.9605C11.6425 16.8949 11.3844 16.8338 11.1267 16.7773C8.70908 16.2473 6.15917 16.0802 4.25857 16.3517L3.26862 16.4931L3.55147 18.473L4.54142 18.3316C5.53825 18.1892 6.80725 18.1871 8.16847 18.3256C7.45069 18.6932 6.79853 19.1115 6.24921 19.5824L5.48995 20.2332L6.79153 21.7517L7.55079 21.1009C8.54834 20.2458 10.1145 19.5343 11.9 19.0311C13.6855 19.5343 15.2517 20.2458 16.2492 21.1009L17.0085 21.7517L18.31 20.2332L17.5508 19.5824C17.0015 19.1115 16.3493 18.6932 15.6315 18.3256C16.9927 18.1871 18.2617 18.1892 19.2586 18.3316L20.2485 18.473L20.5314 16.4931L19.5414 16.3517ZM4.6071 5.13453L3.9 4.42742L2.48578 5.84164L3.19289 6.54874L4.69289 8.04874L5.09325 8.4491L5.64253 8.31178L7.64253 7.81178L8.61268 7.56924L8.1276 5.62896L7.15746 5.87149L5.70675 6.23417L4.6071 5.13453ZM2.2 7.94164L3 8.54164L4.5504 9.70444L6.52861 8.91316L7.45708 8.54177L8.19986 10.3988L7.27139 10.7701L4.77139 11.7701L4.24959 11.9789L3.8 11.6417L1.8 10.1417L1 9.54164L2.2 7.94164ZM2.84721 12.4472L1.95278 12L1.05836 13.7889L1.95278 14.2361L3.95278 15.2361L4.4 15.4597L4.84721 15.2361L6.84721 14.2361L7.74164 13.7889L6.84721 12L5.95278 12.4472L4.4 13.2236L2.84721 12.4472ZM7.79443 3.78885L8.24164 2.89442L6.45278 2L6.00557 2.89442L5.50557 3.89442L7.29443 4.78885L7.79443 3.78885Z" fill="#081F42"/>
</svg>
