<svg width="32" height="32" viewBox="0 0 32 32" fill="none" xmlns="http://www.w3.org/2000/svg">
<path d="M24.4 9.40195C24.4 8.40507 23.5928 7.6001 22.6004 7.6001C21.608 7.6001 20.8 8.40507 20.8 9.40195C20.8 10.3952 21.608 11.2001 22.6004 11.2001C23.5928 11.2001 24.4 10.3952 24.4 9.40195Z" fill="#44546F"/>
<path d="M25.7666 20.8484C25.7132 22.0186 25.5175 22.6543 25.355 23.0765C25.1367 23.6364 24.8764 24.0367 24.4542 24.4565C24.0367 24.8764 23.6363 25.1362 23.0765 25.352C22.6543 25.5169 22.0162 25.7132 20.8461 25.7689C19.5811 25.8247 19.2063 25.8366 15.9985 25.8366C12.7937 25.8366 12.4159 25.8247 11.151 25.7689C9.98091 25.7132 9.34573 25.5169 8.92345 25.352C8.36067 25.1362 7.96335 24.8764 7.54347 24.4565C7.12061 24.0367 6.86028 23.6364 6.645 23.0765C6.48248 22.6543 6.28384 22.0186 6.2334 20.8484C6.17175 19.5835 6.16046 19.2027 6.16046 16.0015C6.16046 12.7937 6.17175 12.4159 6.2334 11.1509C6.28384 9.98088 6.48248 9.34575 6.645 8.91991C6.86028 8.36067 7.12061 7.96272 7.54347 7.54284C7.96335 7.12359 8.36067 6.86321 8.92345 6.645C9.34573 6.47954 9.98091 6.2862 11.151 6.23046C12.4159 6.17469 12.7937 6.16045 15.9985 6.16045C19.2063 6.16045 19.5811 6.17469 20.8461 6.23046C22.0162 6.2862 22.6543 6.47954 23.0765 6.645C23.6363 6.86321 24.0367 7.12359 24.4542 7.54284C24.8764 7.96272 25.1367 8.36067 25.355 8.91991C25.5175 9.34575 25.7132 9.98088 25.7666 11.1509C25.8253 12.4159 25.8395 12.7937 25.8395 16.0015C25.8395 19.2027 25.8253 19.5835 25.7666 20.8484ZM27.9271 11.0525C27.8684 9.77388 27.6667 8.90034 27.3672 8.13948C27.0624 7.35012 26.6538 6.68116 25.9848 6.0122C25.3189 5.34623 24.6499 4.93761 23.8605 4.62924C23.0967 4.3327 22.2261 4.12868 20.9469 4.07295C19.6677 4.01125 19.2591 4 15.9985 4C12.7409 4 12.3294 4.01125 11.0502 4.07295C9.77391 4.12868 8.90388 4.3327 8.1365 4.62924C7.35012 4.93761 6.68116 5.34623 6.01519 6.0122C5.34623 6.68116 4.93761 7.35012 4.62982 8.13948C4.33328 8.90034 4.13166 9.77388 4.06996 11.0525C4.01423 12.3317 4 12.7409 4 16.0015C4 19.2591 4.01423 19.6677 4.06996 20.9469C4.13166 22.2231 4.33328 23.0961 4.62982 23.8605C4.93761 24.6469 5.34623 25.3189 6.01519 25.9848C6.68116 26.6508 7.35012 27.0624 8.1365 27.3702C8.90388 27.6667 9.77391 27.8683 11.0502 27.9271C12.3294 27.9858 12.7409 28 15.9985 28C19.2591 28 19.6677 27.9858 20.9469 27.9271C22.2261 27.8683 23.0967 27.6667 23.8605 27.3702C24.6499 27.0624 25.3189 26.6508 25.9848 25.9848C26.6538 25.3189 27.0624 24.6469 27.3672 23.8605C27.6667 23.0961 27.8684 22.2231 27.9271 20.9469C27.9858 19.6677 28 19.2591 28 16.0015C28 12.7409 27.9858 12.3317 27.9271 11.0525Z" fill="#44546F"/>
<path d="M15.9986 19.8938C13.8485 19.8938 12.1038 18.1524 12.1038 16.0028C12.1038 13.8498 13.8485 12.1062 15.9986 12.1062C18.1492 12.1062 19.8962 13.8498 19.8962 16.0028C19.8962 18.1524 18.1492 19.8938 15.9986 19.8938ZM15.9986 10C12.6842 10 10 12.6893 10 16.0028C10 19.3135 12.6842 22 15.9986 22C19.3129 22 22 19.3135 22 16.0028C22 12.6893 19.3129 10 15.9986 10Z" fill="#44546F"/>
</svg>
