<svg width="32" height="32" viewBox="0 0 32 32" fill="none" xmlns="http://www.w3.org/2000/svg">
<path d="M23.745 23.7455H20.4853V18.6405C20.4853 17.4231 20.4636 15.856 18.7899 15.856C17.0922 15.856 16.8324 17.1824 16.8324 18.5518V23.7451H13.5727V13.2472H16.702V14.6818H16.7458C17.059 14.1463 17.5115 13.7058 18.0553 13.4072C18.599 13.1086 19.2135 12.963 19.8334 12.986C23.1373 12.986 23.7464 15.1592 23.7464 17.9865L23.745 23.7455ZM9.89466 11.8122C9.52052 11.8122 9.15476 11.7013 8.84365 11.4935C8.53253 11.2857 8.29003 10.9903 8.1468 10.6447C8.00356 10.299 7.96602 9.91868 8.03895 9.55171C8.11187 9.18474 8.29198 8.84764 8.55648 8.58303C8.82099 8.31842 9.15802 8.13819 9.52495 8.06514C9.89188 7.99208 10.2722 8.02947 10.6179 8.17259C10.9636 8.31571 11.2591 8.55812 11.467 8.86917C11.6749 9.18023 11.7859 9.54595 11.786 9.9201C11.786 10.1685 11.7371 10.4145 11.6421 10.6441C11.5471 10.8736 11.4078 11.0821 11.2322 11.2578C11.0565 11.4335 10.848 11.5729 10.6185 11.668C10.389 11.7631 10.1431 11.8121 9.89466 11.8122ZM11.5245 23.7455H8.26141V13.2472H11.5245V23.7455ZM25.3701 5.0015H6.62341C6.19791 4.9967 5.78789 5.16102 5.48349 5.45837C5.17908 5.75572 5.00519 6.16176 5 6.58727V25.4124C5.00502 25.8381 5.1788 26.2444 5.4832 26.5421C5.78759 26.8398 6.1977 27.0044 6.62341 26.9999H25.3701C25.7967 27.0052 26.208 26.841 26.5135 26.5434C26.8191 26.2457 26.9941 25.839 27 25.4124V6.58591C26.9939 6.15956 26.8188 5.75306 26.5132 5.45572C26.2076 5.15838 25.7965 4.99452 25.3701 5.00014" fill="#44546F"/>
</svg>
