<svg width="20" height="20" viewBox="0 0 20 20" fill="none" xmlns="http://www.w3.org/2000/svg">
<path fill-rule="evenodd" clip-rule="evenodd" d="M9.92083 0C6.32992 0 3.34953 2.7751 3.09369 6.35688C2.97189 8.06199 3.35372 9.8312 4.4274 11.2411C5.7045 12.918 7.00504 14.0697 9.0386 15.4237C9.62037 15.8111 10.379 15.8111 10.9608 15.4237C12.9943 14.0697 14.2949 12.918 15.5719 11.2411C16.6456 9.8312 17.0275 8.06199 16.9056 6.35688C16.6499 2.7751 13.6695 0 10.0786 0H9.92083ZM9.99993 8.70536C11.3714 8.70536 12.1428 7.93393 12.1428 6.5625C12.1428 5.19107 11.3714 4.41964 9.99993 4.41964C8.6285 4.41964 7.85707 5.19107 7.85707 6.5625C7.85707 7.93393 8.6285 8.70536 9.99993 8.70536ZM8.04877 16.9101C6.26056 15.7194 4.9508 14.6357 3.7437 13.2343C3.05679 13.3289 2.45052 13.7525 2.12897 14.3804L0.499234 17.5631C0.0124726 18.5137 0.702817 19.6429 1.77079 19.6429H18.2291C19.3018 19.6429 19.9918 18.5049 19.4958 17.5539L17.8339 14.3664C17.5145 13.7537 16.9231 13.3387 16.2522 13.238C15.0461 14.6376 13.737 15.7206 11.9504 16.9101C10.7691 17.6966 9.22999 17.6966 8.04877 16.9101Z" fill="#081F42"/>
</svg>
